<svg width="354" height="65" viewBox="0 0 354 65" fill="none" xmlns="http://www.w3.org/2000/svg">
<path d="M17.328 31.752H30.912V49.512C29.12 50.12 27.248 50.6 25.296 50.952C23.376 51.304 21.184 51.48 18.72 51.48C13.6 51.48 9.664 49.976 6.912 46.968C4.16 43.96 2.784 39.576 2.784 33.816C2.784 30.232 3.472 27.128 4.848 24.504C6.256 21.88 8.288 19.848 10.944 18.408C13.6 16.968 16.848 16.248 20.688 16.248C22.512 16.248 24.304 16.44 26.064 16.824C27.824 17.208 29.424 17.72 30.864 18.36L28.464 24.168C27.408 23.624 26.208 23.176 24.864 22.824C23.52 22.472 22.112 22.296 20.64 22.296C18.528 22.296 16.688 22.776 15.12 23.736C13.584 24.696 12.384 26.056 11.52 27.816C10.688 29.544 10.272 31.592 10.272 33.96C10.272 36.2 10.576 38.184 11.184 39.912C11.792 41.64 12.752 43 14.064 43.992C15.376 44.952 17.088 45.432 19.2 45.432C20.224 45.432 21.088 45.384 21.792 45.288C22.528 45.192 23.2 45.08 23.808 44.952V37.8H17.328V31.752ZM53.1184 24.312C53.4704 24.312 53.8864 24.328 54.3664 24.36C54.8464 24.392 55.2304 24.44 55.5184 24.504L54.9904 31.224C54.7664 31.16 54.4304 31.112 53.9824 31.08C53.5664 31.016 53.1984 30.984 52.8784 30.984C51.6624 30.984 50.4944 31.208 49.3744 31.656C48.2544 32.072 47.3424 32.76 46.6384 33.72C45.9664 34.68 45.6304 35.992 45.6304 37.656V51H38.4784V24.792H43.9024L44.9584 29.208H45.2944C46.0624 27.864 47.1184 26.712 48.4624 25.752C49.8064 24.792 51.3584 24.312 53.1184 24.312ZM70.1378 24.312C73.7538 24.312 76.6178 25.352 78.7298 27.432C80.8418 29.48 81.8978 32.408 81.8978 36.216V39.672H65.0018C65.0658 41.688 65.6578 43.272 66.7778 44.424C67.9298 45.576 69.5138 46.152 71.5298 46.152C73.2258 46.152 74.7618 45.992 76.1378 45.672C77.5138 45.32 78.9378 44.792 80.4098 44.088V49.608C79.1298 50.248 77.7698 50.712 76.3298 51C74.9218 51.32 73.2098 51.48 71.1938 51.48C68.5698 51.48 66.2498 51 64.2338 50.04C62.2178 49.048 60.6338 47.56 59.4818 45.576C58.3298 43.592 57.7538 41.096 57.7538 38.088C57.7538 35.016 58.2658 32.472 59.2898 30.456C60.3458 28.408 61.8018 26.872 63.6578 25.848C65.5138 24.824 67.6738 24.312 70.1378 24.312ZM70.1858 29.4C68.8098 29.4 67.6578 29.848 66.7298 30.744C65.8338 31.64 65.3058 33.032 65.1458 34.92H75.1778C75.1458 33.32 74.7298 32.008 73.9298 30.984C73.1298 29.928 71.8818 29.4 70.1858 29.4ZM98.4971 24.312C102.113 24.312 104.977 25.352 107.089 27.432C109.201 29.48 110.257 32.408 110.257 36.216V39.672H93.3611C93.4251 41.688 94.0171 43.272 95.1371 44.424C96.2891 45.576 97.8731 46.152 99.8891 46.152C101.585 46.152 103.121 45.992 104.497 45.672C105.873 45.32 107.297 44.792 108.769 44.088V49.608C107.489 50.248 106.129 50.712 104.689 51C103.281 51.32 101.569 51.48 99.5531 51.48C96.9291 51.48 94.6091 51 92.5931 50.04C90.5771 49.048 88.9931 47.56 87.8411 45.576C86.6891 43.592 86.1131 41.096 86.1131 38.088C86.1131 35.016 86.6251 32.472 87.6491 30.456C88.7051 28.408 90.1611 26.872 92.0171 25.848C93.8731 24.824 96.0331 24.312 98.4971 24.312ZM98.5451 29.4C97.1691 29.4 96.0171 29.848 95.0891 30.744C94.1931 31.64 93.6651 33.032 93.5051 34.92H103.537C103.505 33.32 103.089 32.008 102.289 30.984C101.489 29.928 100.241 29.4 98.5451 29.4ZM130.937 24.312C133.753 24.312 136.009 25.08 137.705 26.616C139.401 28.12 140.249 30.552 140.249 33.912V51H133.097V35.688C133.097 33.8 132.761 32.392 132.089 31.464C131.417 30.504 130.345 30.024 128.873 30.024C126.697 30.024 125.209 30.776 124.409 32.28C123.609 33.752 123.209 35.88 123.209 38.664V51H116.057V24.792H121.529L122.489 28.152H122.873C123.705 26.808 124.841 25.832 126.281 25.224C127.753 24.616 129.305 24.312 130.937 24.312ZM175.192 22.296C172.408 22.296 170.28 23.336 168.808 25.416C167.336 27.496 166.6 30.344 166.6 33.96C166.6 37.608 167.272 40.44 168.616 42.456C169.992 44.44 172.184 45.432 175.192 45.432C176.6 45.432 177.992 45.272 179.368 44.952C180.776 44.632 182.296 44.184 183.928 43.608V49.704C182.424 50.312 180.936 50.76 179.464 51.048C177.992 51.336 176.344 51.48 174.52 51.48C171 51.48 168.088 50.76 165.784 49.32C163.512 47.848 161.832 45.8 160.744 43.176C159.656 40.52 159.112 37.432 159.112 33.912C159.112 30.456 159.736 27.4 160.984 24.744C162.232 22.088 164.04 20.008 166.408 18.504C168.808 17 171.736 16.248 175.192 16.248C176.888 16.248 178.584 16.472 180.28 16.92C182.008 17.336 183.656 17.912 185.224 18.648L182.872 24.552C181.592 23.944 180.296 23.416 178.984 22.968C177.704 22.52 176.44 22.296 175.192 22.296ZM214.443 37.848C214.443 42.2 213.291 45.56 210.987 47.928C208.715 50.296 205.611 51.48 201.675 51.48C199.243 51.48 197.067 50.952 195.147 49.896C193.259 48.84 191.771 47.304 190.683 45.288C189.595 43.24 189.051 40.76 189.051 37.848C189.051 33.496 190.187 30.152 192.459 27.816C194.731 25.48 197.851 24.312 201.819 24.312C204.283 24.312 206.459 24.84 208.347 25.896C210.235 26.952 211.723 28.488 212.811 30.504C213.899 32.488 214.443 34.936 214.443 37.848ZM196.347 37.848C196.347 40.44 196.763 42.408 197.595 43.752C198.459 45.064 199.851 45.72 201.771 45.72C203.659 45.72 205.019 45.064 205.851 43.752C206.715 42.408 207.147 40.44 207.147 37.848C207.147 35.256 206.715 33.32 205.851 32.04C205.019 30.728 203.643 30.072 201.723 30.072C199.835 30.072 198.459 30.728 197.595 32.04C196.763 33.32 196.347 35.256 196.347 37.848ZM235.233 24.312C238.049 24.312 240.305 25.08 242.001 26.616C243.697 28.12 244.545 30.552 244.545 33.912V51H237.393V35.688C237.393 33.8 237.057 32.392 236.385 31.464C235.713 30.504 234.641 30.024 233.169 30.024C230.993 30.024 229.505 30.776 228.705 32.28C227.905 33.752 227.505 35.88 227.505 38.664V51H220.353V24.792H225.825L226.785 28.152H227.169C228.001 26.808 229.137 25.832 230.577 25.224C232.049 24.616 233.601 24.312 235.233 24.312ZM266.78 24.312C269.596 24.312 271.852 25.08 273.548 26.616C275.244 28.12 276.092 30.552 276.092 33.912V51H268.94V35.688C268.94 33.8 268.604 32.392 267.932 31.464C267.26 30.504 266.188 30.024 264.716 30.024C262.54 30.024 261.052 30.776 260.252 32.28C259.452 33.752 259.052 35.88 259.052 38.664V51H251.9V24.792H257.372L258.332 28.152H258.716C259.548 26.808 260.684 25.832 262.124 25.224C263.596 24.616 265.148 24.312 266.78 24.312ZM294.247 24.312C297.863 24.312 300.727 25.352 302.839 27.432C304.951 29.48 306.007 32.408 306.007 36.216V39.672H289.111C289.175 41.688 289.767 43.272 290.887 44.424C292.039 45.576 293.623 46.152 295.639 46.152C297.335 46.152 298.871 45.992 300.247 45.672C301.623 45.32 303.047 44.792 304.519 44.088V49.608C303.239 50.248 301.879 50.712 300.439 51C299.031 51.32 297.319 51.48 295.303 51.48C292.679 51.48 290.359 51 288.343 50.04C286.327 49.048 284.743 47.56 283.591 45.576C282.439 43.592 281.863 41.096 281.863 38.088C281.863 35.016 282.375 32.472 283.399 30.456C284.455 28.408 285.911 26.872 287.767 25.848C289.623 24.824 291.783 24.312 294.247 24.312ZM294.295 29.4C292.919 29.4 291.767 29.848 290.839 30.744C289.943 31.64 289.415 33.032 289.255 34.92H299.287C299.255 33.32 298.839 32.008 298.039 30.984C297.239 29.928 295.991 29.4 294.295 29.4ZM322.463 51.48C318.559 51.48 315.535 50.408 313.391 48.264C311.279 46.088 310.223 42.68 310.223 38.04C310.223 34.84 310.767 32.232 311.855 30.216C312.943 28.2 314.447 26.712 316.367 25.752C318.319 24.792 320.559 24.312 323.087 24.312C324.879 24.312 326.431 24.488 327.743 24.84C329.087 25.192 330.255 25.608 331.247 26.088L329.135 31.608C328.015 31.16 326.959 30.792 325.967 30.504C325.007 30.216 324.047 30.072 323.087 30.072C319.375 30.072 317.519 32.712 317.519 37.992C317.519 40.616 317.999 42.552 318.959 43.8C319.951 45.048 321.327 45.672 323.087 45.672C324.591 45.672 325.919 45.48 327.071 45.096C328.223 44.68 329.343 44.12 330.431 43.416V49.512C329.343 50.216 328.191 50.712 326.975 51C325.791 51.32 324.287 51.48 322.463 51.48ZM347.503 45.768C348.303 45.768 349.071 45.688 349.807 45.528C350.543 45.368 351.279 45.176 352.015 44.952V50.28C351.247 50.6 350.287 50.872 349.135 51.096C348.015 51.352 346.783 51.48 345.439 51.48C343.871 51.48 342.463 51.224 341.215 50.712C339.999 50.2 339.023 49.32 338.287 48.072C337.583 46.792 337.231 45.032 337.231 42.792V30.168H333.823V27.144L337.759 24.744L339.823 19.224H344.383V24.792H351.727V30.168H344.383V42.792C344.383 43.784 344.671 44.536 345.247 45.048C345.823 45.528 346.575 45.768 347.503 45.768Z" fill="#4CA60E"/>
<line x1="3" y1="57.5" x2="352" y2="57.5" stroke="url(#paint0_linear_163:4)" stroke-width="3"/>
<defs>
<linearGradient id="paint0_linear_163:4" x1="177.5" y1="59" x2="385.657" y2="59" gradientUnits="userSpaceOnUse">
<stop stop-color="#4CA60E"/>
<stop offset="1" stop-color="#4CA60E" stop-opacity="0"/>
</linearGradient>
</defs>
</svg>
